C:\Users\u0088756\Documents\FWO\Software\Misc\MuscleTendonEstimator\Examples\Example_trackUS\Data\trial_2_emg.mot
nRows=141
nColumns=4

name C:\Users\u0088756\Documents\FWO\Software\Misc\MuscleTendonEstimator\Examples\Example_trackUS\Data\trial_2_emg.mot
datacolumns 4
datarows 141
range 5.0000000000 5.1400000000
endheader
time	GastrocnemiusMedialis	Soleus	VastusLateralis
        5.0000000000	        0.9129452507	        0.4080820618	        0.7451131605	
        5.0010000000	        0.9145702711	        0.4044270259	        0.7397538694	
        5.0020000000	        0.9161806583	        0.4007655192	        0.7343472343	
        5.0030000000	        0.9177763867	        0.3970976002	        0.7288936013	
        5.0040000000	        0.9193574306	        0.3934233276	        0.7233933193	
        5.0050000000	        0.9209237649	        0.3897427603	        0.7178467404	
        5.0060000000	        0.9224753644	        0.3860559572	        0.7122542195	
        5.0070000000	        0.9240122043	        0.3823629771	        0.7066161147	
        5.0080000000	        0.9255342601	        0.3786638792	        0.7009327866	
        5.0090000000	        0.9270415073	        0.3749587228	        0.6952045991	
        5.0100000000	        0.9285339218	        0.3712475670	        0.6894319187	
        5.0110000000	        0.9300114799	        0.3675304712	        0.6836151149	
        5.0120000000	        0.9314741578	        0.3638074950	        0.6777545599	
        5.0130000000	        0.9329219321	        0.3600786978	        0.6718506289	
        5.0140000000	        0.9343547797	        0.3563441394	        0.6659036997	
        5.0150000000	        0.9357726776	        0.3526038795	        0.6599141529	
        5.0160000000	        0.9371756032	        0.3488579780	        0.6538823718	
        5.0170000000	        0.9385635340	        0.3451064947	        0.6478087425	
        5.0180000000	        0.9399364478	        0.3413494897	        0.6416936536	
        5.0190000000	        0.9412943226	        0.3375870231	        0.6355374966	
        5.0200000000	        0.9426371368	        0.3338191552	        0.6293406653	
        5.0210000000	        0.9439648687	        0.3300459462	        0.6231035565	
        5.0220000000	        0.9452774973	        0.3262674564	        0.6168265693	
        5.0230000000	        0.9465750014	        0.3224837464	        0.6105101053	
        5.0240000000	        0.9478573604	        0.3186948766	        0.6041545690	
        5.0250000000	        0.9491245536	        0.3149009077	        0.5977603669	
        5.0260000000	        0.9503765609	        0.3111019004	        0.5913279084	
        5.0270000000	        0.9516133622	        0.3072979155	        0.5848576051	
        5.0280000000	        0.9528349377	        0.3034890138	        0.5783498711	
        5.0290000000	        0.9540412679	        0.2996752563	        0.5718051229	
        5.0300000000	        0.9552323334	        0.2958567040	        0.5652237794	
        5.0310000000	        0.9564081152	        0.2920334180	        0.5586062618	
        5.0320000000	        0.9575685945	        0.2882054595	        0.5519529935	
        5.0330000000	        0.9587137527	        0.2843728897	        0.5452644005	
        5.0340000000	        0.9598435715	        0.2805357699	        0.5385409107	
        5.0350000000	        0.9609580329	        0.2766941616	        0.5317829545	
        5.0360000000	        0.9620571189	        0.2728481262	        0.5249909643	
        5.0370000000	        0.9631408121	        0.2689977252	        0.5181653749	
        5.0380000000	        0.9642090950	        0.2651430202	        0.5113066231	
        5.0390000000	        0.9652619506	        0.2612840730	        0.5044151479	
        5.0400000000	        0.9662993620	        0.2574209452	        0.4974913902	
        5.0410000000	        0.9673213126	        0.2535536987	        0.4905357933	
        5.0420000000	        0.9683277862	        0.2496823953	        0.4835488022	
        5.0430000000	        0.9693187665	        0.2458070971	        0.4765308642	
        5.0440000000	        0.9702942377	        0.2419278659	        0.4694824284	
        5.0450000000	        0.9712541842	        0.2380447639	        0.4624039459	
        5.0460000000	        0.9721985907	        0.2341578531	        0.4552958696	
        5.0470000000	        0.9731274421	        0.2302671959	        0.4481586546	
        5.0480000000	        0.9740407234	        0.2263728543	        0.4409927576	
        5.0490000000	        0.9749384201	        0.2224748909	        0.4337986372	
        5.0500000000	        0.9758205178	        0.2185733678	        0.4265767538	
        5.0510000000	        0.9766870024	        0.2146683475	        0.4193275697	
        5.0520000000	        0.9775378600	        0.2107598926	        0.4120515488	
        5.0530000000	        0.9783730770	        0.2068480655	        0.4047491567	
        5.0540000000	        0.9791926401	        0.2029329289	        0.3974208607	
        5.0550000000	        0.9799965361	        0.1990145453	        0.3900671300	
        5.0560000000	        0.9807847522	        0.1950929775	        0.3826884351	
        5.0570000000	        0.9815572758	        0.1911682882	        0.3752852483	
        5.0580000000	        0.9823140944	        0.1872405402	        0.3678580434	
        5.0590000000	        0.9830551961	        0.1833097964	        0.3604072957	
        5.0600000000	        0.9837805689	        0.1793761196	        0.3529334820	
        5.0610000000	        0.9844902012	        0.1754395728	        0.3454370807	
        5.0620000000	        0.9851840817	        0.1715002190	        0.3379185716	
        5.0630000000	        0.9858621993	        0.1675581212	        0.3303784357	
        5.0640000000	        0.9865245431	        0.1636133424	        0.3228171558	
        5.0650000000	        0.9871711026	        0.1596659459	        0.3152352157	
        5.0660000000	        0.9878018673	        0.1557159947	        0.3076331006	
        5.0670000000	        0.9884168272	        0.1517635520	        0.3000112971	
        5.0680000000	        0.9890159725	        0.1478086812	        0.2923702931	
        5.0690000000	        0.9895992935	        0.1438514453	        0.2847105774	
        5.0700000000	        0.9901667810	        0.1398919079	        0.2770326403	
        5.0710000000	        0.9907184258	        0.1359301322	        0.2693369732	
        5.0720000000	        0.9912542191	        0.1319661816	        0.2616240687	
        5.0730000000	        0.9917741524	        0.1280001196	        0.2538944203	
        5.0740000000	        0.9922782173	        0.1240320096	        0.2461485227	
        5.0750000000	        0.9927664058	        0.1200619150	        0.2383868717	
        5.0760000000	        0.9932387101	        0.1160898995	        0.2306099641	
        5.0770000000	        0.9936951226	        0.1121160266	        0.2228182975	
        5.0780000000	        0.9941356359	        0.1081403597	        0.2150123706	
        5.0790000000	        0.9945602431	        0.1041629627	        0.2071926830	
        5.0800000000	        0.9949689374	        0.1001838990	        0.1993597351	
        5.0810000000	        0.9953617122	        0.0962032324	        0.1915140282	
        5.0820000000	        0.9957385612	        0.0922210265	        0.1836560646	
        5.0830000000	        0.9960994784	        0.0882373452	        0.1757863470	
        5.0840000000	        0.9964444581	        0.0842522520	        0.1679053791	
        5.0850000000	        0.9967734946	        0.0802658107	        0.1600136654	
        5.0860000000	        0.9970865829	        0.0762780853	        0.1521117108	
        5.0870000000	        0.9973837177	        0.0722891394	        0.1442000211	
        5.0880000000	        0.9976648944	        0.0682990368	        0.1362791027	
        5.0890000000	        0.9979301085	        0.0643078415	        0.1283494625	
        5.0900000000	        0.9981793558	        0.0603156172	        0.1204116079	
        5.0910000000	        0.9984126322	        0.0563224279	        0.1124660470	
        5.0920000000	        0.9986299340	        0.0523283375	        0.1045132884	
        5.0930000000	        0.9988312578	        0.0483334098	        0.0965538409	
        5.0940000000	        0.9990166003	        0.0443377087	        0.0885882141	
        5.0950000000	        0.9991859585	        0.0403412983	        0.0806169176	
        5.0960000000	        0.9993393298	        0.0363442424	        0.0726404616	
        5.0970000000	        0.9994767117	        0.0323466050	        0.0646593567	
        5.0980000000	        0.9995981019	        0.0283484500	        0.0566741136	
        5.0990000000	        0.9997034987	        0.0243498415	        0.0486852434	
        5.1000000000	        0.9997929001	        0.0203508433	        0.0406932573	
        5.1010000000	        0.9998663050	        0.0163515196	        0.0326986669	
        5.1020000000	        0.9999237120	        0.0123519342	        0.0247019838	
        5.1030000000	        0.9999651202	        0.0083521512	        0.0167037198	
        5.1040000000	        0.9999905290	        0.0043522346	        0.0087043867	
        5.1050000000	        0.9999999380	        0.0003522483	        0.0007044966	
        5.1060000000	        0.9999933470	        0.0036477436	        0.0072954386	
        5.1070000000	        0.9999707561	        0.0076476771	        0.0152949069	
        5.1080000000	        0.9999321657	        0.0116474883	        0.0232933964	
        5.1090000000	        0.9998775764	        0.0156471131	        0.0312903951	
        5.1100000000	        0.9998069891	        0.0196464876	        0.0392853912	
        5.1110000000	        0.9997204050	        0.0236455477	        0.0472778730	
        5.1120000000	        0.9996178253	        0.0276442295	        0.0552673291	
        5.1130000000	        0.9994992517	        0.0316424690	        0.0632532481	
        5.1140000000	        0.9993646862	        0.0356402022	        0.0712351189	
        5.1150000000	        0.9992141308	        0.0396373651	        0.0792124307	
        5.1160000000	        0.9990475881	        0.0436338939	        0.0871846729	
        5.1170000000	        0.9988650606	        0.0476297245	        0.0951513354	
        5.1180000000	        0.9986665513	        0.0516247931	        0.1031119081	
        5.1190000000	        0.9984520634	        0.0556190356	        0.1110658818	
        5.1200000000	        0.9982216002	        0.0596123883	        0.1190127473	
        5.1210000000	        0.9979751655	        0.0636047871	        0.1269519960	
        5.1220000000	        0.9977127633	        0.0675961683	        0.1348831198	
        5.1230000000	        0.9974343976	        0.0715864680	        0.1428056111	
        5.1240000000	        0.9971400731	        0.0755756222	        0.1507189629	
        5.1250000000	        0.9968297943	        0.0795635673	        0.1586226688	
        5.1260000000	        0.9965035662	        0.0835502393	        0.1665162229	
        5.1270000000	        0.9961613941	        0.0875355745	        0.1743991200	
        5.1280000000	        0.9958032835	        0.0915195092	        0.1822708556	
        5.1290000000	        0.9954292400	        0.0955019796	        0.1901309259	
        5.1300000000	        0.9950392697	        0.0994829219	        0.1979788279	
        5.1310000000	        0.9946333788	        0.1034622725	        0.2058140594	
        5.1320000000	        0.9942115737	        0.1074399677	        0.2136361188	
        5.1330000000	        0.9937738613	        0.1114159439	        0.2214445055	
        5.1340000000	        0.9933202486	        0.1153901374	        0.2292387199	
        5.1350000000	        0.9928507427	        0.1193624847	        0.2370182631	
        5.1360000000	        0.9923653512	        0.1233329222	        0.2447826372	
        5.1370000000	        0.9918640819	        0.1273013863	        0.2525313453	
        5.1380000000	        0.9913469428	        0.1312678137	        0.2602638915	
        5.1390000000	        0.9908139422	        0.1352321407	        0.2679797809	
        5.1400000000	        0.9902650886	        0.1391943041	        0.2756785197	
